<svg width="36" height="36" viewBox="0 0 36 36" xmlns="http://www.w3.org/2000/svg">
<path class="icon" d="M8.484 30.7185C8.26863 30.9058 8.0043 31.0277 7.72205 31.07C7.4398 31.1123 7.15134 31.0732 6.89053 30.9573C6.62973 30.8414 6.4074 30.6535 6.24966 30.4156C6.09192 30.1778 6.00531 29.8999 6 29.6145V26.25C5.20435 26.25 4.44129 25.9339 3.87868 25.3713C3.31607 24.8087 3 24.0456 3 23.25V12.75C3 11.9543 3.31607 11.1913 3.87868 10.6287C4.44129 10.0661 5.20435 9.75 6 9.75H22.5C23.2957 9.75 24.0587 10.0661 24.6213 10.6287C25.1839 11.1913 25.5 11.9543 25.5 12.75V23.25C25.5 24.0456 25.1839 24.8087 24.6213 25.3713C24.0587 25.9339 23.2957 26.25 22.5 26.25H15.0045L8.484 30.7185ZM9.75 26.079C9.88668 26.0782 10.0209 26.0426 10.14 25.9755L13.6725 23.5185C13.9239 23.3437 14.2228 23.25 14.529 23.25H21C21.3978 23.25 21.7794 23.092 22.0607 22.8107C22.342 22.5294 22.5 22.1478 22.5 21.75V14.25C22.5 13.8522 22.342 13.4706 22.0607 13.1893C21.7794 12.908 21.3978 12.75 21 12.75H7.5C7.10218 12.75 6.72064 12.908 6.43934 13.1893C6.15804 13.4706 6 13.8522 6 14.25V21.75C6 22.56 6.6435 23.223 7.5 23.25C8.115 23.274 8.5605 23.3745 8.766 23.589C8.958 23.79 8.9685 24.129 9 24.774C9.0045 24.8685 9.0045 25.0395 9 25.329C9 25.5279 9.07902 25.7187 9.21967 25.8593C9.36032 26 9.55109 26.079 9.75 26.079ZM27 18.774C26.9952 18.959 26.9952 19.144 27 19.329V18.774C27.03 18.129 27.042 17.79 27.234 17.589C27.4395 17.3745 27.885 17.274 28.5 17.25C29.3565 17.223 30 16.56 30 15.75V8.25C30 7.85217 29.842 7.47064 29.5607 7.18934C29.2794 6.90803 28.8978 6.75 28.5 6.75H15C14.6022 6.75 14.2206 6.90803 13.9393 7.18934C13.658 7.47064 13.5 7.85217 13.5 8.25H10.5V6.75C10.5 5.95435 10.8161 5.19129 11.3787 4.62868C11.9413 4.06607 12.7044 3.75 13.5 3.75H30C30.7957 3.75 31.5587 4.06607 32.1213 4.62868C32.6839 5.19129 33 5.95435 33 6.75V17.25C33 18.0456 32.6839 18.8087 32.1213 19.3713C31.5587 19.9339 30.7957 20.25 30 20.25V23.6145C29.9947 23.8999 29.9081 24.1778 29.7503 24.4156C29.5926 24.6535 29.3703 24.8414 29.1095 24.9573C28.8487 25.0732 28.5602 25.1123 28.2779 25.07C27.9957 25.0277 27.7314 24.9058 27.516 24.7185L27 24.3645V18.7755V18.774Z" fill="current"/>
</svg>
