<svg width="34" height="34" viewBox="0 0 34 34" xmlns="http://www.w3.org/2000/svg">
<path d="M26.0903 9.5625H6.96527C6.12015 9.56335 5.30989 9.89944 4.7123 10.497C4.11471 11.0946 3.77861 11.9049 3.77777 12.75V19.125C3.77833 19.6884 4.0024 20.2286 4.40079 20.627C4.79918 21.0254 5.33936 21.2494 5.90277 21.25V28.6875C5.90333 29.2509 6.1274 29.7911 6.52579 30.1895C6.92418 30.5879 7.46436 30.8119 8.02777 30.8125H12.2778C12.8412 30.8119 13.3814 30.5879 13.7797 30.1895C14.1781 29.7911 14.4022 29.2509 14.4028 28.6875V15.9375H12.2778V28.6875H8.02777V19.125H5.90277V12.75C5.90277 12.4682 6.01471 12.198 6.21397 11.9987C6.41323 11.7994 6.68348 11.6875 6.96527 11.6875H26.0903C26.3721 11.6875 26.6423 11.7994 26.8416 11.9987C27.0408 12.198 27.1528 12.4682 27.1528 12.75V19.125H25.0278V28.6875H20.7778V15.9375H18.6528V28.6875C18.6533 29.2509 18.8774 29.7911 19.2758 30.1895C19.6742 30.5879 20.2144 30.8119 20.7778 30.8125H25.0278C25.5912 30.8119 26.1314 30.5879 26.5297 30.1895C26.9281 29.7911 27.1522 29.2509 27.1528 28.6875V21.25C27.7162 21.2494 28.2564 21.0254 28.6547 20.627C29.0531 20.2286 29.2772 19.6884 29.2778 19.125V12.75C29.2769 11.9049 28.9408 11.0946 28.3432 10.497C27.7456 9.89944 26.9354 9.56335 26.0903 9.5625ZM10.1528 8.5C9.3122 8.5 8.49051 8.25075 7.7916 7.78375C7.09269 7.31675 6.54796 6.65299 6.22628 5.87641C5.90461 5.09982 5.82045 4.24529 5.98443 3.42087C6.14842 2.59645 6.55319 1.83917 7.14757 1.2448C7.74194 0.650425 8.49922 0.245652 9.32364 0.0816645C10.1481 -0.0823227 11.0026 0.00184144 11.7792 0.323514C12.5558 0.645186 13.2195 1.18992 13.6865 1.88883C14.1535 2.58774 14.4028 3.40943 14.4028 4.25C14.4016 5.37683 13.9535 6.45718 13.1567 7.25396C12.3599 8.05075 11.2796 8.49888 10.1528 8.5ZM10.1528 2.125C9.73248 2.125 9.32164 2.24963 8.97218 2.48313C8.62273 2.71663 8.35036 3.04851 8.18953 3.4368C8.02869 3.82509 7.98661 4.25236 8.0686 4.66457C8.1506 5.07678 8.35298 5.45542 8.65017 5.75261C8.94736 6.04979 9.32599 6.25218 9.7382 6.33417C10.1504 6.41617 10.5777 6.37408 10.966 6.21325C11.3543 6.05241 11.6861 5.78004 11.9196 5.43059C12.1531 5.08114 12.2778 4.67029 12.2778 4.25C12.2772 3.68659 12.0531 3.14641 11.6548 2.74802C11.2564 2.34963 10.7162 2.12557 10.1528 2.125ZM22.9028 8.5C22.0622 8.5 21.2405 8.25075 20.5416 7.78375C19.8427 7.31675 19.298 6.65299 18.9763 5.87641C18.6546 5.09982 18.5704 4.24529 18.7344 3.42087C18.8984 2.59645 19.3032 1.83917 19.8976 1.2448C20.4919 0.650425 21.2492 0.245652 22.0736 0.0816645C22.8981 -0.0823227 23.7526 0.00184144 24.5292 0.323514C25.3058 0.645186 25.9695 1.18992 26.4365 1.88883C26.9035 2.58774 27.1528 3.40943 27.1528 4.25C27.1516 5.37683 26.7035 6.45718 25.9067 7.25396C25.1099 8.05075 24.0296 8.49888 22.9028 8.5ZM22.9028 2.125C22.4825 2.125 22.0716 2.24963 21.7222 2.48313C21.3727 2.71663 21.1004 3.04851 20.9395 3.4368C20.7787 3.82509 20.7366 4.25236 20.8186 4.66457C20.9006 5.07678 21.103 5.45542 21.4002 5.75261C21.6974 6.04979 22.076 6.25218 22.4882 6.33417C22.9004 6.41617 23.3277 6.37408 23.716 6.21325C24.1043 6.05241 24.4361 5.78004 24.6696 5.43059C24.9031 5.08114 25.0278 4.67029 25.0278 4.25C25.0272 3.68659 24.8031 3.14641 24.4048 2.74802C24.0064 2.34963 23.4662 2.12557 22.9028 2.125Z" fill="current"/>
</svg>
