<svg width="108" height="26" viewBox="0 0 108 26" fill="none" xmlns="http://www.w3.org/2000/svg">
<path d="M3.85528 22.2327H13.2393V25.3267H0.353277V2.41072H3.85528V22.2327ZM16.6892 25.3267V8.08872H20.0552V25.3267H16.6892ZM16.8592 4.31472C16.4739 3.90672 16.2812 3.40805 16.2812 2.81872C16.2812 2.22939 16.4739 1.73072 16.8592 1.32272C17.2672 0.91472 17.7659 0.71072 18.3552 0.71072C18.9445 0.71072 19.4432 0.91472 19.8512 1.32272C20.2592 1.73072 20.4632 2.22939 20.4632 2.81872C20.4632 3.38539 20.2592 3.87272 19.8512 4.28072C19.4432 4.68872 18.9445 4.89272 18.3552 4.89272C17.7659 4.89272 17.2672 4.70005 16.8592 4.31472ZM29.2052 10.6727V20.1587C29.2052 21.8134 29.9985 22.6407 31.5852 22.6407C32.5145 22.6407 33.2965 22.3914 33.9312 21.8927V24.8847C33.1832 25.2927 32.2652 25.4967 31.1772 25.4967C27.6185 25.4967 25.8392 23.6947 25.8392 20.0907V10.6727H23.1532V8.08872H25.8392V3.87272H29.2052V8.08872H33.7272V10.6727H29.2052ZM48.314 15.4667V14.8547C48.2687 13.5627 47.9173 12.5427 47.26 11.7947C46.6027 11.0241 45.662 10.6387 44.438 10.6387C43.3047 10.6387 42.33 11.0581 41.514 11.8967C40.698 12.7127 40.188 13.9027 39.984 15.4667H48.314ZM50.456 21.4167V24.4087C49.1867 25.1341 47.5093 25.4967 45.424 25.4967C42.7493 25.4967 40.6187 24.6921 39.032 23.0827C37.4453 21.4734 36.652 19.3654 36.652 16.7587C36.652 13.9934 37.3773 11.8287 38.828 10.2647C40.2787 8.67805 42.126 7.88472 44.37 7.88472C46.5687 7.88472 48.314 8.57605 49.606 9.95872C50.898 11.3187 51.544 13.2907 51.544 15.8747C51.544 16.5774 51.476 17.3141 51.34 18.0847H40.018C40.2447 19.5807 40.8793 20.7254 41.922 21.5187C42.9647 22.3121 44.2793 22.7087 45.866 22.7087C47.702 22.7087 49.232 22.2781 50.456 21.4167ZM59.7853 10.6727V20.1587C59.7853 21.8134 60.5786 22.6407 62.1653 22.6407C63.0946 22.6407 63.8766 22.3914 64.5113 21.8927V24.8847C63.7633 25.2927 62.8453 25.4967 61.7573 25.4967C58.1986 25.4967 56.4193 23.6947 56.4193 20.0907V10.6727H53.7333V8.08872H56.4193V3.87272H59.7853V8.08872H64.3073V10.6727H59.7853ZM77.2621 17.6427H74.6781C73.4087 17.6427 72.4454 17.8921 71.7881 18.3907C71.1534 18.8894 70.8361 19.5241 70.8361 20.2947C70.8361 21.0881 71.0854 21.7114 71.5841 22.1647C72.0827 22.6181 72.8081 22.8447 73.7601 22.8447C74.8481 22.8447 75.6981 22.5501 76.3101 21.9607C76.9447 21.3487 77.2621 20.5554 77.2621 19.5807V17.6427ZM68.5921 12.2027V8.97272C69.9294 8.20205 71.6974 7.81672 73.8961 7.81672C78.4067 7.81672 80.6621 10.0041 80.6621 14.3787V25.3267H77.3641V23.2867C76.4801 24.7374 74.9274 25.4627 72.7061 25.4627C71.0741 25.4627 69.7594 24.9981 68.7621 24.0687C67.7874 23.1167 67.3001 21.9154 67.3001 20.4647C67.3001 18.8101 67.9234 17.5294 69.1701 16.6227C70.4167 15.6934 72.1621 15.2287 74.4061 15.2287H77.2621V14.2427C77.2621 13.0641 76.9787 12.1801 76.4121 11.5907C75.8454 10.9787 74.9047 10.6727 73.5901 10.6727C71.7541 10.6727 70.0881 11.1827 68.5921 12.2027ZM85.2869 25.3267V1.28872H88.6529V25.3267H85.2869ZM93.4849 25.3267V1.52672H96.8169V25.3267H93.4849ZM100.795 16.3167L107.561 25.3267H103.583L96.9529 16.3167L103.447 8.08872H107.357L100.795 16.3167Z" fill="#615EF0"/>
<path d="M3.85528 22.2327H2.98399V23.104H3.85528V22.2327ZM13.2393 22.2327H14.1106V21.3614H13.2393V22.2327ZM13.2393 25.3267V26.198H14.1106V25.3267H13.2393ZM0.353277 25.3267H-0.51801V26.198H0.353277V25.3267ZM0.353277 2.41072V1.53943H-0.51801V2.41072H0.353277ZM3.85528 2.41072H4.72656V1.53943H3.85528V2.41072ZM3.85528 23.104H13.2393V21.3614H3.85528V23.104ZM12.368 22.2327V25.3267H14.1106V22.2327H12.368ZM13.2393 24.4554H0.353277V26.198H13.2393V24.4554ZM1.22456 25.3267V2.41072H-0.51801V25.3267H1.22456ZM0.353277 3.28201H3.85528V1.53943H0.353277V3.28201ZM2.98399 2.41072V22.2327H4.72656V2.41072H2.98399ZM16.6892 25.3267H15.8179V26.198H16.6892V25.3267ZM16.6892 8.08872V7.21743H15.8179V8.08872H16.6892ZM20.0552 8.08872H20.9265V7.21743H20.0552V8.08872ZM20.0552 25.3267V26.198H20.9265V25.3267H20.0552ZM16.8592 4.31472L16.2258 4.91297L16.2429 4.93106L16.261 4.94816L16.8592 4.31472ZM16.8592 1.32272L16.2431 0.706627L16.2343 0.715427L16.2258 0.724474L16.8592 1.32272ZM17.5605 25.3267V8.08872H15.8179V25.3267H17.5605ZM16.6892 8.96001H20.0552V7.21743H16.6892V8.96001ZM19.1839 8.08872V25.3267H20.9265V8.08872H19.1839ZM20.0552 24.4554H16.6892V26.198H20.0552V24.4554ZM17.4927 3.71647C17.2683 3.47894 17.1525 3.19789 17.1525 2.81872H15.4099C15.4099 3.61822 15.6794 4.3345 16.2258 4.91297L17.4927 3.71647ZM17.1525 2.81872C17.1525 2.43955 17.2683 2.1585 17.4927 1.92097L16.2258 0.724474C15.6794 1.30294 15.4099 2.01922 15.4099 2.81872H17.1525ZM17.4753 1.93881C17.716 1.69809 17.9914 1.58201 18.3552 1.58201V-0.160567C17.5403 -0.160567 16.8184 0.131355 16.2431 0.706627L17.4753 1.93881ZM18.3552 1.58201C18.719 1.58201 18.9944 1.69809 19.2351 1.93881L20.4673 0.706627C19.892 0.131355 19.1701 -0.160567 18.3552 -0.160567V1.58201ZM19.2351 1.93881C19.4758 2.17954 19.5919 2.45493 19.5919 2.81872H21.3345C21.3345 2.00384 21.0426 1.2819 20.4673 0.706627L19.2351 1.93881ZM19.5919 2.81872C19.5919 3.14962 19.4831 3.41668 19.2351 3.66463L20.4673 4.89681C21.0354 4.32876 21.3345 3.62115 21.3345 2.81872H19.5919ZM19.2351 3.66463C18.9944 3.90536 18.719 4.02143 18.3552 4.02143V5.76401C19.1701 5.76401 19.892 5.47209 20.4673 4.89681L19.2351 3.66463ZM18.3552 4.02143C17.976 4.02143 17.695 3.90562 17.4575 3.68128L16.261 4.94816C16.8394 5.49449 17.5557 5.76401 18.3552 5.76401V4.02143ZM29.2052 10.6727V9.80143H28.3339V10.6727H29.2052ZM33.9312 21.8927H34.8025V20.1001L33.3929 21.2076L33.9312 21.8927ZM33.9312 24.8847L34.3484 25.6496L34.8025 25.4019V24.8847H33.9312ZM25.8392 10.6727H26.7105V9.80143H25.8392V10.6727ZM23.1532 10.6727H22.2819V11.544H23.1532V10.6727ZM23.1532 8.08872V7.21743H22.2819V8.08872H23.1532ZM25.8392 8.08872V8.96001H26.7105V8.08872H25.8392ZM25.8392 3.87272V3.00143H24.9679V3.87272H25.8392ZM29.2052 3.87272H30.0765V3.00143H29.2052V3.87272ZM29.2052 8.08872H28.3339V8.96001H29.2052V8.08872ZM33.7272 8.08872H34.5985V7.21743H33.7272V8.08872ZM33.7272 10.6727V11.544H34.5985V10.6727H33.7272ZM28.3339 10.6727V20.1587H30.0765V10.6727H28.3339ZM28.3339 20.1587C28.3339 21.1114 28.5617 21.9876 29.1713 22.6233C29.7874 23.2658 30.648 23.512 31.5852 23.512V21.7694C30.9357 21.7694 30.6063 21.602 30.4291 21.4172C30.2453 21.2255 30.0765 20.8607 30.0765 20.1587H28.3339ZM31.5852 23.512C32.6788 23.512 33.6586 23.2149 34.4695 22.5778L33.3929 21.2076C32.9344 21.5678 32.3503 21.7694 31.5852 21.7694V23.512ZM33.0599 21.8927V24.8847H34.8025V21.8927H33.0599ZM33.514 24.1198C32.9246 24.4413 32.1588 24.6254 31.1772 24.6254V26.368C32.3716 26.368 33.4418 26.1441 34.3484 25.6496L33.514 24.1198ZM31.1772 24.6254C29.535 24.6254 28.4627 24.2106 27.7937 23.533C27.1226 22.8534 26.7105 21.7612 26.7105 20.0907H24.9679C24.9679 22.0243 25.4454 23.635 26.5537 24.7574C27.664 25.8818 29.2608 26.368 31.1772 26.368V24.6254ZM26.7105 20.0907V10.6727H24.9679V20.0907H26.7105ZM25.8392 9.80143H23.1532V11.544H25.8392V9.80143ZM24.0245 10.6727V8.08872H22.2819V10.6727H24.0245ZM23.1532 8.96001H25.8392V7.21743H23.1532V8.96001ZM26.7105 8.08872V3.87272H24.9679V8.08872H26.7105ZM25.8392 4.74401H29.2052V3.00143H25.8392V4.74401ZM28.3339 3.87272V8.08872H30.0765V3.87272H28.3339ZM29.2052 8.96001H33.7272V7.21743H29.2052V8.96001ZM32.8559 8.08872V10.6727H34.5985V8.08872H32.8559ZM33.7272 9.80143H29.2052V11.544H33.7272V9.80143ZM48.314 15.4667V16.338H49.1853V15.4667H48.314ZM48.314 14.8547H49.1853V14.8394L49.1847 14.8242L48.314 14.8547ZM47.26 11.7947L46.597 12.3602L46.6055 12.3699L47.26 11.7947ZM41.514 11.8967L42.1301 12.5129L42.1385 12.5043L41.514 11.8967ZM39.984 15.4667L39.12 15.354L38.9917 16.338H39.984V15.4667ZM50.456 21.4167H51.3273V19.7382L49.9546 20.7042L50.456 21.4167ZM50.456 24.4087L50.8883 25.1652L51.3273 24.9143V24.4087H50.456ZM39.032 23.0827L38.4115 23.6944L39.032 23.0827ZM38.828 10.2647L39.4668 10.8572L39.471 10.8526L38.828 10.2647ZM49.606 9.95872L48.9694 10.5536L48.9743 10.5588L49.606 9.95872ZM51.34 18.0847V18.956H52.071L52.198 18.2361L51.34 18.0847ZM40.018 18.0847V17.2134H39.0048L39.1565 18.2152L40.018 18.0847ZM41.922 21.5187L41.3944 22.2121L41.922 21.5187ZM49.1853 15.4667V14.8547H47.4427V15.4667H49.1853ZM49.1847 14.8242C49.1345 13.3919 48.7399 12.1588 47.9145 11.2196L46.6055 12.3699C47.0948 12.9266 47.4028 13.7336 47.4432 14.8853L49.1847 14.8242ZM47.9229 11.2293C47.0656 10.2242 45.8588 9.76743 44.438 9.76743V11.51C45.4652 11.51 46.1397 11.8239 46.5971 12.3601L47.9229 11.2293ZM44.438 9.76743C43.061 9.76743 41.8636 10.288 40.8895 11.2891L42.1385 12.5043C42.7964 11.8281 43.5483 11.51 44.438 11.51V9.76743ZM40.8979 11.2806C39.9039 12.2746 39.3399 13.6685 39.12 15.354L40.848 15.5794C41.0361 14.137 41.4921 13.1508 42.1301 12.5128L40.8979 11.2806ZM39.984 16.338H48.314V14.5954H39.984V16.338ZM49.5847 21.4167V24.4087H51.3273V21.4167H49.5847ZM50.0237 23.6522C48.9304 24.277 47.4187 24.6254 45.424 24.6254V26.368C47.6 26.368 49.4429 25.9911 50.8883 25.1652L50.0237 23.6522ZM45.424 24.6254C42.9364 24.6254 41.0456 23.8841 39.6524 22.471L38.4115 23.6944C40.1917 25.5 42.5622 26.368 45.424 26.368V24.6254ZM39.6524 22.471C38.2513 21.0499 37.5233 19.1744 37.5233 16.7587H35.7807C35.7807 19.5564 36.6393 21.8969 38.4115 23.6944L39.6524 22.471ZM37.5233 16.7587C37.5233 14.146 38.2057 12.2168 39.4668 10.8572L38.1892 9.67221C36.5489 11.4406 35.7807 13.8408 35.7807 16.7587H37.5233ZM39.471 10.8526C40.7486 9.45526 42.3585 8.75601 44.37 8.75601V7.01343C41.8935 7.01343 39.8087 7.90085 38.185 9.6768L39.471 10.8526ZM44.37 8.75601C46.37 8.75601 47.8692 9.37619 48.9694 10.5536L50.2426 9.36385C48.7588 7.77592 46.7673 7.01343 44.37 7.01343V8.75601ZM48.9743 10.5588C50.0623 11.7041 50.6727 13.4286 50.6727 15.8747H52.4153C52.4153 13.1528 51.7337 10.9334 50.2377 9.35862L48.9743 10.5588ZM50.6727 15.8747C50.6727 16.5213 50.6101 17.2071 50.482 17.9333L52.198 18.2361C52.3419 17.421 52.4153 16.6335 52.4153 15.8747H50.6727ZM51.34 17.2134H40.018V18.956H51.34V17.2134ZM39.1565 18.2152C39.4115 19.8977 40.1435 21.2604 41.3944 22.2121L42.4496 20.8253C41.6151 20.1904 41.0779 19.2637 40.8795 17.9542L39.1565 18.2152ZM41.3944 22.2121C42.6186 23.1436 44.1301 23.58 45.866 23.58V21.8374C44.4286 21.8374 43.3107 21.4805 42.4496 20.8253L41.3944 22.2121ZM45.866 23.58C47.8402 23.58 49.5561 23.1153 50.9574 22.1293L49.9546 20.7042C48.9078 21.4408 47.5637 21.8374 45.866 21.8374V23.58ZM59.7853 10.6727V9.80143H58.914V10.6727H59.7853ZM64.5113 21.8927H65.3826V20.1001L63.973 21.2076L64.5113 21.8927ZM64.5113 24.8847L64.9285 25.6496L65.3826 25.4019V24.8847H64.5113ZM56.4193 10.6727H57.2906V9.80143H56.4193V10.6727ZM53.7333 10.6727H52.862V11.544H53.7333V10.6727ZM53.7333 8.08872V7.21743H52.862V8.08872H53.7333ZM56.4193 8.08872V8.96001H57.2906V8.08872H56.4193ZM56.4193 3.87272V3.00143H55.548V3.87272H56.4193ZM59.7853 3.87272H60.6566V3.00143H59.7853V3.87272ZM59.7853 8.08872H58.914V8.96001H59.7853V8.08872ZM64.3073 8.08872H65.1786V7.21743H64.3073V8.08872ZM64.3073 10.6727V11.544H65.1786V10.6727H64.3073ZM58.914 10.6727V20.1587H60.6566V10.6727H58.914ZM58.914 20.1587C58.914 21.1114 59.1418 21.9876 59.7514 22.6233C60.3675 23.2658 61.2281 23.512 62.1653 23.512V21.7694C61.5158 21.7694 61.1864 21.602 61.0092 21.4172C60.8254 21.2255 60.6566 20.8607 60.6566 20.1587H58.914ZM62.1653 23.512C63.2589 23.512 64.2387 23.2149 65.0496 22.5778L63.973 21.2076C63.5145 21.5678 62.9303 21.7694 62.1653 21.7694V23.512ZM63.64 21.8927V24.8847H65.3826V21.8927H63.64ZM64.0941 24.1198C63.5047 24.4413 62.7389 24.6254 61.7573 24.6254V26.368C62.9516 26.368 64.0219 26.1441 64.9285 25.6496L64.0941 24.1198ZM61.7573 24.6254C60.1151 24.6254 59.0428 24.2106 58.3738 23.533C57.7027 22.8534 57.2906 21.7612 57.2906 20.0907H55.548C55.548 22.0243 56.0255 23.635 57.1338 24.7574C58.2441 25.8818 59.8408 26.368 61.7573 26.368V24.6254ZM57.2906 20.0907V10.6727H55.548V20.0907H57.2906ZM56.4193 9.80143H53.7333V11.544H56.4193V9.80143ZM54.6046 10.6727V8.08872H52.862V10.6727H54.6046ZM53.7333 8.96001H56.4193V7.21743H53.7333V8.96001ZM57.2906 8.08872V3.87272H55.548V8.08872H57.2906ZM56.4193 4.74401H59.7853V3.00143H56.4193V4.74401ZM58.914 3.87272V8.08872H60.6566V3.87272H58.914ZM59.7853 8.96001H64.3073V7.21743H59.7853V8.96001ZM63.436 8.08872V10.6727H65.1786V8.08872H63.436ZM64.3073 9.80143H59.7853V11.544H64.3073V9.80143ZM77.2621 17.6427H78.1334V16.7714H77.2621V17.6427ZM71.7881 18.3907L71.2615 17.6966L71.2556 17.701L71.2498 17.7056L71.7881 18.3907ZM71.5841 22.1647L72.1702 21.52L72.1702 21.52L71.5841 22.1647ZM76.3101 21.9607L76.9144 22.5883L76.9149 22.5879L76.3101 21.9607ZM68.5921 12.2027H67.7208V13.8513L69.0829 12.9226L68.5921 12.2027ZM68.5921 8.97272L68.157 8.21781L67.7208 8.46921V8.97272H68.5921ZM80.6621 25.3267V26.198H81.5334V25.3267H80.6621ZM77.3641 25.3267H76.4928V26.198H77.3641V25.3267ZM77.3641 23.2867H78.2354V20.1826L76.62 22.8333L77.3641 23.2867ZM68.7621 24.0687L68.1533 24.692L68.1606 24.6992L68.1681 24.7062L68.7621 24.0687ZM69.1701 16.6227L69.6826 17.3274L69.6908 17.3213L69.1701 16.6227ZM77.2621 15.2287V16.1H78.1334V15.2287H77.2621ZM76.4121 11.5907L75.7728 12.1827L75.7783 12.1887L75.784 12.1946L76.4121 11.5907ZM77.2621 16.7714H74.6781V18.514H77.2621V16.7714ZM74.6781 16.7714C73.3151 16.7714 72.1324 17.0358 71.2615 17.6966L72.3147 19.0849C72.7584 18.7483 73.5024 18.514 74.6781 18.514V16.7714ZM71.2498 17.7056C70.4164 18.3604 69.9648 19.2423 69.9648 20.2947H71.7074C71.7074 19.8058 71.8904 19.4184 72.3264 19.0758L71.2498 17.7056ZM69.9648 20.2947C69.9648 21.286 70.2852 22.1615 70.998 22.8094L72.1702 21.52C71.8856 21.2613 71.7074 20.8901 71.7074 20.2947H69.9648ZM70.998 22.8094C71.7126 23.4591 72.6805 23.716 73.7601 23.716V21.9734C72.9356 21.9734 72.4528 21.777 72.1702 21.52L70.998 22.8094ZM73.7601 23.716C75.0076 23.716 76.0981 23.3744 76.9144 22.5883L75.7057 21.3331C75.298 21.7257 74.6886 21.9734 73.7601 21.9734V23.716ZM76.9149 22.5879C77.7387 21.7935 78.1334 20.7644 78.1334 19.5807H76.3908C76.3908 20.3463 76.1508 20.9039 75.7053 21.3335L76.9149 22.5879ZM78.1334 19.5807V17.6427H76.3908V19.5807H78.1334ZM69.4634 12.2027V8.97272H67.7208V12.2027H69.4634ZM69.0271 9.72763C70.1877 9.05884 71.7889 8.68801 73.8961 8.68801V6.94543C71.6059 6.94543 69.6712 7.34527 68.157 8.21781L69.0271 9.72763ZM73.8961 8.68801C76.0237 8.68801 77.4581 9.20413 78.364 10.0827C79.2649 10.9564 79.7908 12.3326 79.7908 14.3787H81.5334C81.5334 12.0502 80.9316 10.1454 79.5772 8.83177C78.2277 7.52298 76.2791 6.94543 73.8961 6.94543V8.68801ZM79.7908 14.3787V25.3267H81.5334V14.3787H79.7908ZM80.6621 24.4554H77.3641V26.198H80.6621V24.4554ZM78.2354 25.3267V23.2867H76.4928V25.3267H78.2354ZM76.62 22.8333C75.9425 23.9452 74.7296 24.5914 72.7061 24.5914V26.334C75.1252 26.334 77.0176 25.5296 78.1081 23.7401L76.62 22.8333ZM72.7061 24.5914C71.2485 24.5914 70.1613 24.1816 69.3561 23.4313L68.1681 24.7062C69.3575 25.8145 70.8997 26.334 72.7061 26.334V24.5914ZM69.3709 23.4454C68.5758 22.6688 68.1714 21.6977 68.1714 20.4647H66.4288C66.4288 22.1331 66.999 23.5646 68.1533 24.692L69.3709 23.4454ZM68.1714 20.4647C68.1714 19.0649 68.68 18.0565 69.6825 17.3274L68.6576 15.9181C67.1668 17.0023 66.4288 18.5552 66.4288 20.4647H68.1714ZM69.6908 17.3213C70.7334 16.544 72.2696 16.1 74.4061 16.1V14.3574C72.0546 14.3574 70.1 14.8427 68.6493 15.9242L69.6908 17.3213ZM74.4061 16.1H77.2621V14.3574H74.4061V16.1ZM78.1334 15.2287V14.2427H76.3908V15.2287H78.1334ZM78.1334 14.2427C78.1334 12.9381 77.8202 11.7981 77.0401 10.9868L75.784 12.1946C76.1372 12.562 76.3908 13.19 76.3908 14.2427H78.1334ZM77.0514 10.9988C76.2454 10.1283 75.0104 9.80143 73.5901 9.80143V11.544C74.7991 11.544 75.4454 11.8292 75.7728 12.1827L77.0514 10.9988ZM73.5901 9.80143C71.5816 9.80143 69.7441 10.3627 68.1012 11.4828L69.0829 12.9226C70.4321 12.0027 71.9266 11.544 73.5901 11.544V9.80143ZM85.2869 25.3267H84.4156V26.198H85.2869V25.3267ZM85.2869 1.28872V0.417434H84.4156V1.28872H85.2869ZM88.6529 1.28872H89.5242V0.417434H88.6529V1.28872ZM88.6529 25.3267V26.198H89.5242V25.3267H88.6529ZM86.1582 25.3267V1.28872H84.4156V25.3267H86.1582ZM85.2869 2.16001H88.6529V0.417434H85.2869V2.16001ZM87.7816 1.28872V25.3267H89.5242V1.28872H87.7816ZM88.6529 24.4554H85.2869V26.198H88.6529V24.4554ZM93.4849 25.3267H92.6136V26.198H93.4849V25.3267ZM93.4849 1.52672V0.655432H92.6136V1.52672H93.4849ZM96.8169 1.52672H97.6881V0.655432H96.8169V1.52672ZM96.8169 25.3267V26.198H97.6881V25.3267H96.8169ZM100.795 16.3167L100.114 15.7735L99.6932 16.3007L100.098 16.8399L100.795 16.3167ZM107.561 25.3267V26.198H109.305L108.258 24.8035L107.561 25.3267ZM103.583 25.3267L102.881 25.8431L103.142 26.198H103.583V25.3267ZM96.9529 16.3167L96.2689 15.7769L95.8575 16.2982L96.2511 16.8331L96.9529 16.3167ZM103.447 8.08872V7.21743H103.025L102.763 7.54892L103.447 8.08872ZM107.357 8.08872L108.038 8.63198L109.166 7.21743H107.357V8.08872ZM94.3561 25.3267V1.52672H92.6136V25.3267H94.3561ZM93.4849 2.39801H96.8169V0.655432H93.4849V2.39801ZM95.9456 1.52672V25.3267H97.6881V1.52672H95.9456ZM96.8169 24.4554H93.4849V26.198H96.8169V24.4554ZM100.098 16.8399L106.864 25.8499L108.258 24.8035L101.492 15.7935L100.098 16.8399ZM107.561 24.4554H103.583V26.198H107.561V24.4554ZM104.285 24.8103L97.6546 15.8003L96.2511 16.8331L102.881 25.8431L104.285 24.8103ZM97.6368 16.8565L104.131 8.62852L102.763 7.54892L96.2689 15.7769L97.6368 16.8565ZM103.447 8.96001H107.357V7.21743H103.447V8.96001ZM106.676 7.54546L100.114 15.7735L101.476 16.86L108.038 8.63198L106.676 7.54546Z" fill="#615EF0"/>
</svg>
