<svg width="57" height="38" viewBox="0 0 57 38" fill="none" xmlns="http://www.w3.org/2000/svg">
<g clip-path="url(#clip0_57_85)">
<path d="M29.8766 33.2083C33.6476 33.2083 35.5336 33.2083 36.7046 32.0852C37.8766 30.963 37.8766 29.1555 37.8766 25.5417C37.8766 21.9278 37.8766 20.1204 36.7046 18.9982C35.5336 17.875 33.6476 17.875 29.8766 17.875H25.8766C22.1056 17.875 20.2196 17.875 19.0486 18.9982C17.8766 20.1204 17.8766 21.9278 17.8766 25.5417C17.8766 29.1555 17.8766 30.963 19.0486 32.0852C19.7016 32.7119 20.5766 32.9889 21.8766 33.1106" stroke="#FAF8F8" stroke-width="4.16667" stroke-linecap="round" stroke-linejoin="round"/>
<path d="M29.8766 33.2083C28.6406 33.2083 27.2786 33.6875 26.0356 34.3056C24.0376 35.2994 23.0386 35.7968 22.5466 35.4796C22.0546 35.1633 22.1476 34.1811 22.3346 32.2174L22.3766 31.7708" fill="#FAF8F8"/>
<path d="M29.8766 33.2083C28.6406 33.2083 27.2786 33.6875 26.0356 34.3056C24.0376 35.2994 23.0386 35.7968 22.5466 35.4796C22.0546 35.1633 22.1476 34.1811 22.3346 32.2174L22.3766 31.7708" stroke="#FAF8F8" stroke-width="4.16667" stroke-linecap="round"/>
</g>
<path d="M1.49014 16.0461L10.5763 16.3185L7.9953 22.3955L1.49014 16.0461Z" fill="#FAF8F8"/>
<path d="M54.7236 16.419L47.921 22.4488L45.6348 16.2547L54.7236 16.419Z" fill="#FAF8F8"/>
<path d="M15.1253 1.99432L22.3698 7.48519L16.743 10.9395L15.1253 1.99432Z" fill="#FAF8F8"/>
<path d="M39.0453 1.19832L39.5167 10.2763L33.2489 8.20078L39.0453 1.19832Z" fill="#FAF8F8"/>
<defs>
<clipPath id="clip0_57_85">
<rect width="24" height="23" fill="#615EF0" transform="translate(15.8766 15)"/>
</clipPath>
</defs>
</svg>
